<svg width="96" height="96" viewBox="0 0 96 96" fill="none" xmlns="http://www.w3.org/2000/svg">
  <defs>
    <linearGradient id="bg" x1="10" y1="8" x2="86" y2="88" gradientUnits="userSpaceOnUse">
      <stop stop-color="#2B4E72"/>
      <stop offset="0.56" stop-color="#1E3856"/>
      <stop offset="1" stop-color="#16293D"/>
    </linearGradient>
    <radialGradient id="glow" cx="0" cy="0" r="1" gradientUnits="userSpaceOnUse" gradientTransform="translate(30 22) rotate(37) scale(56)">
      <stop stop-color="#72EFDD" stop-opacity="0.45"/>
      <stop offset="1" stop-color="#72EFDD" stop-opacity="0"/>
    </radialGradient>
    <linearGradient id="ink" x1="24" y1="22" x2="74" y2="72" gradientUnits="userSpaceOnUse">
      <stop stop-color="#F1FBFF"/>
      <stop offset="1" stop-color="#A8DEFF"/>
    </linearGradient>
  </defs>
  <rect x="5" y="5" width="86" height="86" rx="24" fill="url(#bg)" stroke="#6689AE" stroke-width="2"/>
  <rect x="11" y="11" width="74" height="74" rx="20" fill="url(#glow)"/>

  <!-- Rift stroke: symbolic split for "Riftbound" -->
  <path d="M47 20L42 36L50 50L44 76" stroke="#87EBFF" stroke-opacity="0.72" stroke-width="2.2" stroke-linecap="round"/>

  <!-- Left glyph: R -->
  <path d="M23 26.5C23 24.567 24.567 23 26.5 23H37.6C47.839 23 53 27.777 53 35.562C53 41.326 49.853 45.289 43.943 47.063L53 61.5H45.252L37.257 48.62H31V61.5H23V26.5ZM31 30V42.2H37.145C42.701 42.2 45 39.566 45 35.884C45 32.036 42.384 30 36.882 30H31Z" fill="url(#ink)"/>

  <!-- Right glyph: D as a document page -->
  <path d="M54 28.5C54 26.567 55.567 25 57.5 25H69.5L75 30.5V60.5C75 62.433 73.433 64 71.5 64H57.5C55.567 64 54 62.433 54 60.5V28.5Z" fill="#1A2E45" stroke="#88A9CA" stroke-width="1.6"/>
  <path d="M69.5 25V30.5H75" stroke="#9BCBEE" stroke-width="1.6" stroke-linecap="round" stroke-linejoin="round"/>
  <path d="M59 34V56" stroke="url(#ink)" stroke-width="2.8" stroke-linecap="round"/>
  <path d="M59 34H64.6C68.135 34 70 36.174 70 40C70 43.826 68.135 46 64.6 46H59" stroke="url(#ink)" stroke-width="2.8" stroke-linecap="round" stroke-linejoin="round"/>

  <!-- Shared D cue -->
  <circle cx="70.8" cy="66.2" r="2.2" fill="#97EDFF"/>
</svg>
