<svg width="96" height="96" viewBox="0 0 96 96" fill="none" xmlns="http://www.w3.org/2000/svg">
  <defs>
    <linearGradient id="bg" x1="12" y1="8" x2="84" y2="88" gradientUnits="userSpaceOnUse">
      <stop stop-color="#27486A"/>
      <stop offset="0.55" stop-color="#1D334D"/>
      <stop offset="1" stop-color="#15273A"/>
    </linearGradient>
    <radialGradient id="glow" cx="0" cy="0" r="1" gradientUnits="userSpaceOnUse" gradientTransform="translate(31 23) rotate(36.6) scale(54.2455)">
      <stop stop-color="#72EFDD" stop-opacity="0.42"/>
      <stop offset="1" stop-color="#72EFDD" stop-opacity="0"/>
    </radialGradient>
    <linearGradient id="rune" x1="33" y1="24" x2="65" y2="69" gradientUnits="userSpaceOnUse">
      <stop stop-color="#E9F8FF"/>
      <stop offset="1" stop-color="#9FD9FF"/>
    </linearGradient>
  </defs>
  <rect x="5" y="5" width="86" height="86" rx="24" fill="url(#bg)" stroke="#5E7FA3" stroke-opacity="0.8" stroke-width="2"/>
  <rect x="11" y="11" width="74" height="74" rx="20" fill="url(#glow)"/>
  <path d="M30 25C30 23.3431 31.3431 22 33 22H47.5C61.031 22 68 28.6251 68 39C68 46.6302 63.6902 51.9579 55.6624 54.1524L68 72H58.3312L46.9772 55.8787H39V72H30V25ZM39 30V48H47.6391C56.323 48 59 44.0468 59 39.1314C59 33.8077 55.8856 30 47.2846 30H39Z" fill="url(#rune)"/>
  <path d="M58.5 20.5L61.2 26L67 28.4L61.2 30.8L58.5 36.3L55.8 30.8L50 28.4L55.8 26L58.5 20.5Z" fill="#8DEAFF"/>
</svg>
